<svg width="46" height="46" viewBox="0 0 46 46" fill="none" xmlns="http://www.w3.org/2000/svg">
<path d="M45.3613 23.2171C45.3613 22.8922 45.1806 22.5943 44.8923 22.4443L36.4884 18.0715L44.8923 13.6988C45.1806 13.5488 45.3613 13.2508 45.3613 12.926C45.3613 12.6011 45.1806 12.3031 44.8923 12.1531L30.7313 4.77202C30.3041 4.54995 29.7784 4.71591 29.5563 5.14272C29.3342 5.56952 29.5001 6.09563 29.927 6.3177L42.6027 12.9259L23.0586 23.0951L3.51452 12.9259L23.0586 2.7566L29.8946 6.31354C30.3218 6.53561 30.8476 6.36956 31.0696 5.94285C31.2917 5.51605 31.1257 4.98993 30.6989 4.76786L23.4607 1.00166C23.2085 0.870541 22.9086 0.870541 22.6565 1.00166L1.22491 12.153C0.936634 12.303 0.755859 12.6009 0.755859 12.9259C0.755859 13.2508 0.936634 13.5487 1.22491 13.6987L9.62878 18.0714L1.22491 22.4443C0.936634 22.5943 0.755859 22.8922 0.755859 23.2171C0.755859 23.542 0.936634 23.8399 1.22491 23.9899L9.62878 28.3627L1.22491 32.7355C0.936634 32.8855 0.755859 33.1835 0.755859 33.5083C0.755859 33.8332 0.936634 34.1312 1.22491 34.2812L22.6565 45.4326C22.7825 45.4981 22.9205 45.5309 23.0586 45.5309C23.1967 45.5309 23.3347 45.4982 23.4607 45.4326L44.8923 34.2812C45.1806 34.1312 45.3613 33.8332 45.3613 33.5083C45.3613 33.1835 45.1806 32.8855 44.8923 32.7355L36.4884 28.3627L44.8923 23.9899C45.1806 23.8399 45.3613 23.542 45.3613 23.2171ZM23.4607 24.8501L34.6009 19.0535L37.1983 20.405L17.6853 30.5905L14.209 28.7817L22.2107 24.6183L22.6564 24.8501C22.7824 24.9156 22.9204 24.9484 23.0585 24.9484C23.1966 24.9484 23.3347 24.9156 23.4607 24.8501ZM20.3233 23.6361L12.3215 27.7995L8.86177 25.9994L16.8636 21.8359L20.3233 23.6361ZM11.5163 19.0535L14.976 20.8538L6.97423 25.0173L3.51443 23.217L11.5163 19.0535ZM42.6027 33.5083L23.0586 43.6776L3.51452 33.5083L11.5163 29.3449L22.6565 35.1414C22.7825 35.2069 22.9205 35.2398 23.0586 35.2398C23.1967 35.2398 23.3347 35.207 23.4607 35.1414L34.6009 29.3449L42.6027 33.5083ZM23.0586 33.3864L19.5709 31.5717L39.084 21.3863L42.6027 23.2171L23.0586 33.3864Z" fill="#333333"/>
</svg>
