<svg width="48" height="48" viewBox="0 0 48 48" fill="none" xmlns="http://www.w3.org/2000/svg">
<path d="M16.969 0.709839V0.710815C16.9506 0.710839 16.9321 0.710481 16.9136 0.711841C16.802 0.719761 16.6933 0.751586 16.595 0.80516C16.4968 0.858734 16.4111 0.932806 16.344 1.02236L14.0976 4.01749L9.06345 4.62162C8.99585 4.62974 8.92962 4.64667 8.86642 4.67197L4.96017 6.23447C4.78134 6.30589 4.63525 6.44091 4.54999 6.61356L0.645264 14.4229C0.599367 14.5147 0.571996 14.6146 0.564714 14.717C0.557432 14.8193 0.570383 14.9221 0.602825 15.0194L2.16533 19.7069C2.22546 19.8876 2.34958 20.0401 2.51432 20.1357C2.67905 20.2313 2.87304 20.2634 3.05978 20.2259L6.96603 19.4447C7.16061 19.4058 7.33309 19.2942 7.44845 19.1328C7.56381 18.9713 7.6134 18.772 7.58715 18.5753L6.89393 13.3762L9.15652 12.6973V28.0536C9.15652 28.2302 9.2164 28.4017 9.32638 28.5399C9.43637 28.6782 9.58996 28.7751 9.7621 28.8148C13.1467 29.5972 16.6093 29.9923 20.0831 29.9925C21.3825 29.9925 22.683 29.9369 23.9845 29.8256C23.9336 30.1999 23.7489 30.5431 23.4646 30.7918C23.1803 31.0406 22.8155 31.1779 22.4378 31.1786C22.3215 31.1786 22.2067 31.2045 22.1018 31.2545C21.9968 31.3045 21.9043 31.3773 21.8311 31.4676C21.7578 31.5579 21.7057 31.6634 21.6784 31.7764C21.6511 31.8894 21.6493 32.0071 21.6733 32.1208L24.7983 46.9646C24.8352 47.14 24.9314 47.2973 25.0705 47.4103C25.2097 47.5232 25.3835 47.5848 25.5628 47.5848H35.719C35.8261 47.5849 35.9321 47.5628 36.0302 47.52C36.1284 47.4772 36.2167 47.4146 36.2895 47.3361L36.2902 47.3367L47.2277 35.6179C47.3659 35.4699 47.4411 35.2739 47.4377 35.0714C47.4342 34.8689 47.3522 34.6756 47.209 34.5324L41.7402 29.0636C41.6655 28.9889 41.5763 28.9301 41.4781 28.8908C41.38 28.8515 41.2749 28.8325 41.1692 28.835C41.0635 28.8375 40.9594 28.8615 40.8632 28.9054C40.767 28.9493 40.6808 29.0123 40.6096 29.0905L36.5003 33.6108V23.3661C36.5003 23.1589 36.4179 22.9602 36.2714 22.8137C36.1249 22.6672 35.9262 22.5848 35.719 22.5848H31.0315V12.683L40.9731 15.5235C41.1667 15.5788 41.3741 15.5572 41.5522 15.4633C41.7303 15.3694 41.8652 15.2104 41.929 15.0194L43.4915 10.3319C43.5545 10.1429 43.5428 9.93691 43.459 9.75614C43.3751 9.57537 43.2254 9.43348 43.0404 9.35947L31.3216 4.67197C31.2584 4.64667 31.1922 4.62974 31.1246 4.62162L26.0904 4.01749L23.8441 1.02236C23.7769 0.932807 23.6913 0.858735 23.593 0.805161C23.4947 0.751587 23.3861 0.719762 23.2744 0.711842C23.2559 0.710482 23.2375 0.710816 23.219 0.710793V0.709839H16.969ZM20.8082 19.2588C20.5257 19.2588 20.2496 19.175 20.0147 19.018C19.7798 18.861 19.5967 18.6379 19.4886 18.3769C19.3805 18.1159 19.3522 17.8287 19.4073 17.5516C19.4624 17.2746 19.5984 17.02 19.7982 16.8203L20.027 16.5914L22.0471 18.6115L21.8183 18.8404C21.6859 18.9735 21.5285 19.079 21.3552 19.1508C21.1818 19.2226 20.9959 19.2593 20.8082 19.2588ZM20.094 3.51116L18.8552 2.27234H21.3328L20.094 3.51116ZM17.0535 2.68051L19.0624 4.68943L17.6658 6.55167L15.6569 4.54275L17.0535 2.68051ZM3.42961 18.5585L2.18755 14.8323L4.81196 9.58349L5.94159 18.0561L3.42961 18.5585ZM10.4041 11.0206C10.3064 10.9479 10.1931 10.899 10.0731 10.8779C9.95316 10.8568 9.82994 10.864 9.71327 10.899L6.68479 11.8075L6.10505 7.45937L9.35145 6.16085L14.4529 5.54864L17.1978 8.29356C17.3443 8.44001 17.543 8.5223 17.7502 8.52234C17.7687 8.52234 17.7872 8.52167 17.8057 8.52034C17.9173 8.51242 18.026 8.48059 18.1243 8.42702C18.2225 8.37344 18.3082 8.29937 18.3753 8.20982L19.3128 6.95986V15.0958L19.2457 15.1629L18.0739 13.9911L18.3027 13.7623C18.4492 13.6158 18.5315 13.417 18.5315 13.2098C18.5315 13.0026 18.4492 12.8039 18.3027 12.6574L15.1777 9.53237C15.0312 9.38591 14.8325 9.30364 14.6253 9.30364C14.4181 9.30364 14.2194 9.38591 14.0728 9.53237L13.2916 10.3136C12.7791 10.8264 12.4702 11.5078 12.4225 12.2312C12.3747 12.9546 12.5912 13.6707 13.0319 14.2464C13.4725 14.822 14.1072 15.2181 14.8179 15.361C15.5287 15.5038 16.2671 15.3837 16.8959 15.0229L18.2145 16.3415C17.8206 17.0285 17.7149 17.8436 17.9208 18.6082C18.1266 19.3729 18.6272 20.0248 19.3128 20.4212V28.4223C16.4226 28.3719 13.5443 28.0388 10.719 27.4277V11.6473C10.719 11.5255 10.6906 11.4054 10.6359 11.2966C10.5812 11.1878 10.5018 11.0933 10.4041 11.0206ZM14.3965 13.4386C14.129 13.1705 13.9788 12.8073 13.9788 12.4286C13.9788 12.0499 14.129 11.6866 14.3965 11.4185L14.6253 11.1897L16.6454 13.2098L16.4166 13.4386C16.1485 13.7061 15.7852 13.8563 15.4065 13.8563C15.0278 13.8563 14.6646 13.7061 14.3965 13.4386V13.4386ZM26.1967 46.0223L23.3707 32.5989C24.0057 32.3994 24.5606 32.0026 24.9548 31.4662C25.349 30.9298 25.562 30.2817 25.5628 29.6161V24.1473H28.6878C28.69 25.8761 29.3283 27.5437 30.4809 28.8322C31.6335 30.1207 33.2199 30.94 34.9378 31.1341V46.0223H26.1967ZM41.2147 30.7479L45.5704 35.1035L36.5003 44.8215V35.9338L41.2147 30.7479ZM34.9378 29.5594C33.637 29.37 32.4477 28.7191 31.5871 27.7255C30.7265 26.7319 30.252 25.4618 30.2503 24.1473H34.9378V29.5594ZM41.7762 10.5366L40.6832 13.8156L30.4649 10.8961C30.3487 10.8629 30.2263 10.8571 30.1074 10.8793C29.9885 10.9014 29.8764 10.9508 29.7798 11.0236C29.6833 11.0964 29.605 11.1907 29.551 11.2989C29.4971 11.4071 29.469 11.5264 29.469 11.6473V22.5848H24.7815C24.5743 22.5848 24.3756 22.6672 24.2291 22.8137C24.0826 22.9602 24.0003 23.1589 24.0003 23.3661V28.2554C22.9587 28.3476 21.917 28.4028 20.8753 28.4209V20.8197C21.6455 20.8048 22.3798 20.4913 22.9232 19.9453L23.7044 19.164C23.8509 19.0175 23.9333 18.8188 23.9333 18.6115C23.9333 18.4043 23.8509 18.2056 23.7044 18.0591L20.8753 15.2299V6.95986L21.8127 8.20982C21.8799 8.29937 21.9655 8.37344 22.0638 8.42702C22.1621 8.48059 22.2707 8.51242 22.3824 8.52034C22.4009 8.52167 22.4194 8.52234 22.4379 8.52234C22.645 8.5223 22.8437 8.44001 22.9902 8.29355L25.7351 5.54864L30.8366 6.16085L41.7762 10.5366ZM24.5312 4.54275L22.5223 6.55167L21.1256 4.68943L23.1345 2.68051L24.5312 4.54275Z" fill="#333333"/>
</svg>
