<svg width="36" height="36" viewBox="0 0 36 36" fill="none" xmlns="http://www.w3.org/2000/svg">
<path d="M33.2343 27.0217C31.9937 25.7717 28.989 23.9475 27.5312 23.2124C25.6328 22.2561 25.4765 22.178 23.9843 23.2866C22.989 24.0264 22.3273 24.6874 21.1625 24.4389C19.9976 24.1905 17.4664 22.7897 15.25 20.5803C13.0336 18.3709 11.5515 15.7663 11.3023 14.6053C11.0531 13.4444 11.725 12.7905 12.4578 11.7928C13.4906 10.3866 13.4125 10.1522 12.5296 8.25376C11.8414 6.7772 9.96402 3.80064 8.70934 2.56626C7.36715 1.24048 7.36715 1.47486 6.5023 1.83423C5.79822 2.13047 5.12274 2.49057 4.48433 2.91001C3.23433 3.74048 2.54058 4.43032 2.05543 5.46704C1.57027 6.50376 1.3523 8.93423 3.85777 13.4858C6.36324 18.0374 8.12105 20.3647 11.7593 23.9928C15.3976 27.621 18.1953 29.5717 22.2851 31.8655C27.3445 34.6991 29.2851 34.1467 30.325 33.6624C31.3648 33.178 32.0578 32.4905 32.8898 31.2405C33.3103 30.6031 33.6712 29.9284 33.9679 29.2249C34.3281 28.3631 34.5625 28.3631 33.2343 27.0217Z" stroke="#FDFDFD" stroke-width="2.6" stroke-miterlimit="10"/>
</svg>
