<svg width="198" height="274" viewBox="0 0 198 274" fill="none" xmlns="http://www.w3.org/2000/svg">
<path d="M392.17 68.3311C395.39 68.3311 398 65.7216 398 62.501C398 59.2805 395.39 56.671 392.17 56.671H366.439V40.4019H392.17C395.39 40.4019 398 37.7924 398 34.5719C398 31.3513 395.39 28.7418 392.17 28.7418H366.439V25.8361C366.439 11.8019 355.021 0.385054 340.987 0.385054C333.099 0.385054 326.037 3.99271 321.366 9.64322C316.694 3.99193 309.632 0.384277 301.744 0.384277C293.855 0.384277 286.794 3.99193 282.122 9.64322C277.45 3.99193 270.389 0.384277 262.5 0.384277C254.612 0.384277 247.551 3.99193 242.879 9.64322C238.207 3.99193 231.145 0.384277 223.257 0.384277C215.369 0.384277 208.307 3.99193 203.635 9.64322C198.963 3.99193 191.902 0.384277 184.014 0.384277C176.125 0.384277 169.064 3.99193 164.392 9.64322C159.72 3.99193 152.659 0.385054 144.77 0.385054C136.882 0.385054 129.82 3.99271 125.148 9.644C120.477 3.99271 113.415 0.385054 105.527 0.385054C91.4926 0.385054 80.075 11.8027 80.075 25.8361V28.7426H19.7943C8.8796 28.7426 0 37.6222 0 48.5368C0 59.4515 8.8796 68.3311 19.7943 68.3311H35.6319C38.8516 68.3311 41.462 65.7216 41.462 62.501C41.462 59.2805 38.8516 56.671 35.6319 56.671H19.7943C15.309 56.671 11.6602 53.0221 11.6602 48.5368C11.6602 44.0516 15.309 40.4027 19.7943 40.4027H80.0734V56.671H27.0741C23.8543 56.671 21.244 59.2805 21.244 62.501C21.244 65.7216 23.8543 68.3311 27.0741 68.3311H80.0742V161.264H60.0902C54.0153 153.069 44.2759 147.744 33.3138 147.744C14.9444 147.744 0 162.688 0 181.058C0 192.02 5.32403 201.759 13.5196 207.834V267.787C13.5196 271.007 16.1299 273.617 19.3496 273.617C22.5694 273.617 25.1797 271.007 25.1797 267.787V213.364C27.7846 214.02 30.5084 214.373 33.3138 214.373C36.1193 214.373 38.8439 214.021 41.448 213.364V267.787C41.448 271.007 44.0583 273.617 47.278 273.617C50.4978 273.617 53.1081 271.007 53.1081 267.787V207.834C55.7651 205.864 58.1197 203.51 60.0895 200.853H80.0734V248.164C80.0734 262.198 91.491 273.616 105.525 273.616C113.414 273.616 120.475 270.008 125.147 264.357C129.819 270.008 136.88 273.616 144.769 273.616C152.657 273.616 159.718 270.008 164.39 264.357C169.062 270.008 176.124 273.616 184.012 273.616C191.901 273.616 198.962 270.008 203.634 264.357C208.306 270.008 215.367 273.616 223.255 273.616C231.144 273.616 238.205 270.008 242.877 264.357C247.549 270.008 254.61 273.616 262.499 273.616C270.387 273.616 277.448 270.008 282.121 264.357C286.792 270.008 293.854 273.616 301.742 273.616C309.631 273.616 316.692 270.008 321.364 264.357C326.036 270.008 333.097 273.616 340.986 273.616C355.02 273.616 366.438 262.198 366.438 248.164V208.642C366.438 205.422 363.827 202.812 360.607 202.812C357.388 202.812 354.777 205.422 354.777 208.642V248.164C354.777 255.769 348.59 261.956 340.986 261.956C333.381 261.956 327.194 255.769 327.194 248.164V25.8361C327.194 18.2321 333.381 12.0452 340.986 12.0452C348.59 12.0452 354.777 18.2321 354.777 25.8361V211.76C354.777 214.98 357.388 217.59 360.607 217.59C363.827 217.59 366.438 214.98 366.438 211.76V200.853H392.17C395.39 200.853 398 198.244 398 195.023C398 191.803 395.39 189.193 392.17 189.193H366.439V172.924H392.17C395.39 172.924 398 170.315 398 167.094C398 163.874 395.39 161.264 392.17 161.264H366.439V68.3311H392.17ZM11.6602 181.058C11.6602 169.118 21.3746 159.404 33.3138 159.404C45.2531 159.404 54.9675 169.118 54.9675 181.058C54.9675 192.998 45.2538 202.711 33.3138 202.711C21.3738 202.711 11.6602 192.998 11.6602 181.058ZM65.6195 189.193C66.2756 186.588 66.6285 183.864 66.6285 181.058C66.6285 178.252 66.2763 175.528 65.6202 172.923H80.075V189.193H65.6195ZM144.769 261.957C137.165 261.957 130.978 255.77 130.978 248.165V67.6844C130.978 64.4638 128.367 61.8543 125.148 61.8543C121.928 61.8543 119.318 64.4638 119.318 67.6844V248.165C119.318 255.77 113.131 261.957 105.526 261.957C97.9212 261.957 91.7343 255.77 91.7343 248.165V25.8361C91.7343 18.2321 97.9212 12.0452 105.526 12.0452C113.131 12.0452 119.318 18.2321 119.318 25.8361V73.1335C119.318 76.3541 121.928 78.9636 125.148 78.9636C128.367 78.9636 130.978 76.3541 130.978 73.1335V25.8361C130.978 18.2321 137.165 12.0452 144.769 12.0452C152.374 12.0452 158.561 18.2321 158.561 25.8361V248.165C158.562 255.77 152.375 261.957 144.769 261.957ZM184.013 261.957C176.408 261.957 170.221 255.77 170.221 248.165V25.8361C170.221 18.2313 176.408 12.0444 184.013 12.0444C191.618 12.0444 197.804 18.2313 197.804 25.8361V248.165C197.804 255.77 191.618 261.957 184.013 261.957ZM223.257 261.957C215.652 261.957 209.465 255.77 209.465 248.165V25.8361C209.465 18.2313 215.652 12.0444 223.257 12.0444C230.862 12.0444 237.049 18.2313 237.049 25.8361V248.165C237.049 255.77 230.862 261.957 223.257 261.957ZM262.5 261.957C254.896 261.957 248.709 255.77 248.709 248.165V25.8361C248.709 18.2313 254.896 12.0444 262.5 12.0444C270.105 12.0444 276.292 18.2313 276.292 25.8361V248.165C276.292 255.77 270.105 261.957 262.5 261.957ZM301.744 261.957C294.139 261.957 287.952 255.77 287.952 248.165V25.8361C287.952 18.2313 294.139 12.0444 301.744 12.0444C309.349 12.0444 315.535 18.2313 315.535 25.8361V248.165C315.535 255.77 309.349 261.957 301.744 261.957Z" fill="#FDFDFD" fill-opacity="0.2"/>
</svg>
