<svg width="48" height="48" viewBox="0 0 48 48" fill="none" xmlns="http://www.w3.org/2000/svg">
<path fill-rule="evenodd" clip-rule="evenodd" d="M47.399 16.8748C47.4328 16.979 47.4444 17.0891 47.433 17.1979L46.1175 29.6979L46.0465 29.6904L47.1443 30.5686C47.2357 30.6419 47.3095 30.7347 47.3603 30.8403C47.411 30.9459 47.4373 31.0616 47.4373 31.1787V46.8037C47.4373 47.0109 47.3549 47.2096 47.2084 47.3561C47.0619 47.5026 46.8632 47.585 46.656 47.585H4.71811C4.1799 47.585 3.6475 47.4737 3.1543 47.2583C2.6611 47.0428 2.21775 46.7277 1.85206 46.3328C1.48637 45.9379 1.20623 45.4717 1.02921 44.9635C0.852193 44.4552 0.782121 43.9158 0.823389 43.3792L1.90513 29.3167C1.96252 28.5748 2.23228 27.8651 2.68218 27.2725H1.34351C1.13631 27.2725 0.937591 27.1901 0.791079 27.0436C0.644566 26.8971 0.562256 26.6984 0.562256 26.4912V23.3662C0.562256 23.159 0.644566 22.9603 0.791079 22.8138C0.937591 22.6673 1.13631 22.585 1.34351 22.585H4.46851C4.56789 22.585 4.66636 22.6039 4.75864 22.6408L8.66489 24.2033C8.80987 24.2613 8.93414 24.3614 9.02168 24.4907C9.10922 24.62 9.15601 24.7726 9.156 24.9287V25.71H10.8371L9.94155 17.1979C9.9301 17.0891 9.94166 16.979 9.97548 16.8748C10.0093 16.7707 10.0646 16.6749 10.1379 16.5935C10.2112 16.5121 10.3007 16.447 10.4007 16.4025C10.5007 16.358 10.609 16.335 10.7185 16.335H15.1695L15.406 16.1772V13.9912C15.406 10.4688 16.8053 7.09067 19.296 4.59995C21.7867 2.10923 25.1648 0.709961 28.6873 0.709961C36.0106 0.709961 41.9685 6.66797 41.9685 13.9912V16.1772L42.205 16.335H46.656C46.7655 16.335 46.8738 16.358 46.9738 16.4025C47.0738 16.447 47.1633 16.5121 47.2366 16.5935C47.3099 16.6749 47.3652 16.7707 47.399 16.8748ZM17.7498 16.4927L16.1873 17.5343V22.585H19.3123V17.5343L17.7498 16.4927ZM20.0935 16.1772L20.33 16.335H37.0445L37.281 16.1772V13.9912C37.281 11.712 36.3756 9.52615 34.764 7.91451C33.1523 6.30287 30.9665 5.39746 28.6873 5.39746C26.4081 5.39746 24.2222 6.30287 22.6106 7.91451C20.9989 9.52615 20.0935 11.712 20.0935 13.9912V16.1772ZM39.6248 16.4927L38.0623 17.5343V22.585H41.1873V17.5343L39.6248 16.4927ZM20.4008 5.7048C18.2032 7.90249 16.9685 10.8832 16.9685 13.9912V15.1356L17.3164 14.9037C17.4447 14.8181 17.5955 14.7725 17.7498 14.7725C17.904 14.7725 18.0548 14.8181 18.1832 14.9037L18.531 15.1356V13.9912C18.531 11.2976 19.601 8.71432 21.5057 6.80966C23.4104 4.90499 25.9936 3.83496 28.6873 3.83496C31.3809 3.83496 33.9641 4.90499 35.8688 6.80966C37.7735 8.71432 38.8435 11.2976 38.8435 13.9912V15.1356L39.1914 14.9037C39.3197 14.8181 39.4705 14.7725 39.6248 14.7725C39.779 14.7725 39.9298 14.8181 40.0582 14.9037L40.406 15.1356V13.9912C40.406 10.8832 39.1714 7.90249 36.9737 5.7048C34.776 3.50711 31.7953 2.27246 28.6873 2.27246C25.5792 2.27246 22.5985 3.50711 20.4008 5.7048ZM17.7498 30.3975H13.0623C12.8551 30.3975 12.6563 30.3151 12.5098 30.1686C12.3633 30.0221 12.281 29.8234 12.281 29.6162V27.2725H5.79985C5.21004 27.2749 4.6426 27.4985 4.2098 27.8993C3.77701 28.3 3.51037 28.8485 3.46265 29.4364L2.66792 39.7725H28.1441L27.3494 29.4364C27.3016 28.8485 27.035 28.3 26.6022 27.8993C26.1694 27.4985 25.602 27.2749 25.0122 27.2725H18.531V29.6162C18.531 29.8234 18.4487 30.0221 18.3022 30.1686C18.1557 30.3151 17.957 30.3975 17.7498 30.3975ZM13.8435 28.835H16.9685V27.2725H13.8435V28.835ZM4.31802 24.1475H2.12476V25.71H7.59351V25.4576L4.31802 24.1475ZM4.71811 46.0225H26.0935H26.0939C26.4168 46.0224 26.7362 45.9556 27.032 45.8263C27.3279 45.697 27.5939 45.5079 27.8132 45.271C28.0326 45.034 28.2006 44.7543 28.3068 44.4494C28.413 44.1444 28.455 43.8209 28.4302 43.4989L28.2642 41.335H2.5478L2.3813 43.4989C2.35653 43.8209 2.39856 44.1445 2.50476 44.4495C2.61097 44.7545 2.77905 45.0342 2.99846 45.2711C3.21788 45.5081 3.48389 45.6971 3.77981 45.8264C4.07573 45.9557 4.39518 46.0225 4.71811 46.0225ZM34.9373 31.5542V46.0225H45.8748V31.5542L42.4757 28.835H38.3363L34.9373 31.5542ZM42.7498 27.2725C42.9272 27.2724 43.0994 27.3328 43.238 27.4436L44.6638 28.5842L45.7882 17.8975H42.7498V23.3662C42.7498 23.5734 42.6674 23.7721 42.5209 23.9186C42.3744 24.0651 42.1757 24.1475 41.9685 24.1475H37.281C37.0738 24.1475 36.8751 24.0651 36.7286 23.9186C36.5821 23.7721 36.4998 23.5734 36.4998 23.3662V17.8975H20.8748V23.3662C20.8748 23.5734 20.7924 23.7721 20.6459 23.9186C20.4994 24.0651 20.3007 24.1475 20.0935 24.1475H15.406C15.1988 24.1475 15.0001 24.0651 14.8536 23.9186C14.7071 23.7721 14.6248 23.5734 14.6248 23.3662V17.8975H11.586L12.408 25.71H25.0122C25.9951 25.7141 26.9407 26.0871 27.6618 26.7549C28.383 27.4228 28.8273 28.337 28.9069 29.3167L29.9886 43.3792C30.06 44.3244 29.7865 45.2635 29.2186 46.0225H33.3748V31.1787C33.3747 31.0616 33.401 30.9459 33.4518 30.8403C33.5025 30.7347 33.5763 30.6419 33.6677 30.5686L37.574 27.4436C37.7126 27.3328 37.8848 27.2724 38.0623 27.2725H42.7498ZM26.3438 19.46H31.0312C31.2385 19.46 31.4372 19.5423 31.5837 19.6888C31.7302 19.8353 31.8125 20.034 31.8125 20.2412V23.3662C31.8125 23.5734 31.7302 23.7721 31.5837 23.9186C31.4372 24.0652 31.2385 24.1475 31.0312 24.1475H26.3438C26.1365 24.1475 25.9378 24.0652 25.7913 23.9186C25.6448 23.7721 25.5625 23.5734 25.5625 23.3662V20.2412C25.5625 20.034 25.6448 19.8353 25.7913 19.6888C25.9378 19.5423 26.1365 19.46 26.3438 19.46ZM27.125 22.585H30.25V21.0225H27.125V22.585ZM40.4062 36.6475C40.6134 36.6477 40.812 36.7301 40.9584 36.8765C41.1049 37.023 41.1873 37.2216 41.1875 37.4287C41.1875 37.6359 41.2698 37.8346 41.4163 37.9811C41.5628 38.1277 41.7616 38.21 41.9688 38.21C42.1759 38.21 42.3747 38.1277 42.5212 37.9811C42.6677 37.8346 42.75 37.6359 42.75 37.4287C42.7494 36.9442 42.5989 36.4718 42.3191 36.0762C42.0394 35.6807 41.6441 35.3814 41.1875 35.2193V34.3037C41.1875 34.0965 41.1052 33.8978 40.9587 33.7513C40.8122 33.6048 40.6134 33.5225 40.4062 33.5225C40.1991 33.5225 40.0003 33.6048 39.8538 33.7513C39.7073 33.8978 39.625 34.0965 39.625 34.3037V35.2193C39.104 35.4038 38.6649 35.7665 38.3853 36.2433C38.1058 36.7201 38.0037 37.2803 38.0972 37.8251C38.1907 38.3698 38.4737 38.864 38.8962 39.2203C39.3187 39.5767 39.8535 39.7722 40.4062 39.7725C40.5608 39.7725 40.7118 39.8183 40.8403 39.9041C40.9688 39.99 41.0689 40.112 41.128 40.2547C41.1872 40.3975 41.2026 40.5546 41.1725 40.7061C41.1423 40.8577 41.0679 40.9969 40.9587 41.1061C40.8494 41.2154 40.7102 41.2898 40.5587 41.3199C40.4071 41.3501 40.25 41.3346 40.1073 41.2755C39.9645 41.2164 39.8425 41.1162 39.7567 40.9877C39.6708 40.8593 39.625 40.7082 39.625 40.5537C39.625 40.3465 39.5427 40.1478 39.3962 40.0013C39.2497 39.8548 39.0509 39.7725 38.8438 39.7725C38.6366 39.7725 38.4378 39.8548 38.2913 40.0013C38.1448 40.1478 38.0625 40.3465 38.0625 40.5537C38.0631 41.0382 38.2136 41.5106 38.4934 41.9062C38.7731 42.3017 39.1684 42.6011 39.625 42.7631V43.6787C39.625 43.8859 39.7073 44.0846 39.8538 44.2311C40.0003 44.3776 40.1991 44.46 40.4062 44.46C40.6134 44.46 40.8122 44.3776 40.9587 44.2311C41.1052 44.0846 41.1875 43.8859 41.1875 43.6787V42.7631C41.7085 42.5786 42.1476 42.216 42.4272 41.7392C42.7067 41.2624 42.8088 40.7021 42.7153 40.1573C42.6218 39.6126 42.3388 39.1184 41.9163 38.7621C41.4938 38.4057 40.959 38.2102 40.4062 38.21C40.1991 38.21 40.0003 38.1277 39.8538 37.9811C39.7073 37.8346 39.625 37.6359 39.625 37.4287C39.625 37.2215 39.7073 37.0228 39.8538 36.8763C40.0003 36.7298 40.1991 36.6475 40.4062 36.6475ZM41.1875 31.1786C41.1875 31.6101 40.8377 31.9598 40.4062 31.9598C39.9748 31.9598 39.625 31.6101 39.625 31.1786C39.625 30.7471 39.9748 30.3973 40.4062 30.3973C40.8377 30.3973 41.1875 30.7471 41.1875 31.1786Z" fill="#333333"/>
</svg>
