<svg width="50" height="43" viewBox="0 0 50 43" fill="none" xmlns="http://www.w3.org/2000/svg">
<path fill-rule="evenodd" clip-rule="evenodd" d="M47.1188 5.17544C47.1188 6.13306 46.8549 7.05308 46.362 7.85015C48.7181 8.77124 50.0001 10.481 49.9999 12.747V25.6053C49.9999 26.975 48.8856 28.0892 47.5161 28.0892C47.1542 28.0892 46.8102 28.0114 46.4999 27.8717V39.6277C46.4999 41.0566 45.3374 42.2191 43.9084 42.2191C43.1806 42.2191 42.522 41.9176 42.0508 41.4329C41.5796 41.9175 40.921 42.2191 40.1932 42.2191C38.7643 42.2191 37.6018 41.0566 37.6018 39.6277V27.8717C37.2916 28.0114 36.9475 28.0892 36.5857 28.0892C35.2161 28.0892 34.1018 26.975 34.1018 25.6053V16.6782C34.1018 16.6712 34.1019 16.6642 34.1021 16.6572V12.747C34.1021 10.4987 35.3657 8.79624 37.689 7.87056C37.1881 7.06919 36.9199 6.14194 36.9199 5.17544C36.9199 2.36353 39.2075 0.0759277 42.0193 0.0759277C44.8312 0.0759277 47.1188 2.36353 47.1188 5.17544ZM35.5696 17.1535C35.5698 17.1466 35.5699 17.1396 35.5699 17.1326V12.747C35.5699 10.858 36.758 9.57944 39.1011 8.94722C39.3531 8.87915 39.55 8.68257 39.6182 8.43062C39.6865 8.17876 39.6158 7.90952 39.4327 7.72368C38.7588 7.0397 38.3876 6.13472 38.3876 5.17544C38.3876 3.1729 40.0168 1.5437 42.0194 1.5437C44.0219 1.5437 45.6511 3.1729 45.6511 5.17544C45.6511 6.12856 45.2838 7.02944 44.6169 7.71226C44.4345 7.89907 44.3651 8.1687 44.4345 8.42036C44.5041 8.67202 44.702 8.86782 44.9544 8.93452C47.3287 9.56196 48.5325 10.8446 48.5325 12.747V25.6053C48.5325 26.1656 48.0766 26.6214 47.5163 26.6214C46.956 26.6214 46.5001 26.1656 46.5001 25.6053V13.3102C46.5001 12.9049 46.1715 12.5763 45.7663 12.5763C45.361 12.5763 45.0324 12.9049 45.0324 13.3102V39.6277C45.0324 40.2473 44.5283 40.7514 43.9086 40.7514C43.289 40.7514 42.7849 40.2473 42.7849 39.6277V25.7549C42.7849 25.3497 42.4564 25.021 42.051 25.021C41.6457 25.021 41.3171 25.3496 41.3171 25.7549V39.6277C41.3171 40.2473 40.813 40.7514 40.1934 40.7514C39.5738 40.7514 39.0697 40.2473 39.0697 39.6277V13.3102C39.0697 12.9049 38.7411 12.5763 38.3358 12.5763C37.9305 12.5763 37.6019 12.9049 37.6019 13.3102V25.6053C37.6019 26.1656 37.146 26.6214 36.5858 26.6214C36.0254 26.6214 35.5696 26.1656 35.5696 25.6053V17.1535ZM28.6257 14.8953C29.1187 14.0982 29.3825 13.1782 29.3825 12.2206C29.3825 9.40879 27.0949 7.12109 24.283 7.12109C21.4711 7.12109 19.1835 9.40869 19.1835 12.2206C19.1835 13.1871 19.4518 14.1144 19.9526 14.9157C17.6293 15.8414 16.3657 17.5438 16.3657 19.7922V29.1279C16.3657 30.4976 17.48 31.6117 18.8496 31.6117C19.2114 31.6117 19.5555 31.534 19.8658 31.3942V39.6277C19.8658 41.0566 21.0283 42.2191 22.4572 42.2191C23.185 42.2191 23.8437 41.9176 24.3147 41.4329C24.7859 41.9176 25.4446 42.2191 26.1724 42.2191C27.6013 42.2191 28.7638 41.0566 28.7638 39.6277V31.3946C29.074 31.5341 29.4179 31.6118 29.7795 31.6118C31.1491 31.6118 32.2634 30.4976 32.2634 29.128V19.7922C32.2639 17.5262 30.9818 15.8164 28.6257 14.8953ZM27.296 39.6277V34.2048C27.2957 34.1959 27.2955 34.1869 27.2955 34.1778V20.3554C27.2955 19.9501 27.6241 19.6215 28.0294 19.6215C28.4348 19.6215 28.7633 19.9501 28.7633 20.3554V28.6116C28.7636 28.6206 28.7638 28.6296 28.7638 28.6386V29.1596C28.7806 29.7053 29.2298 30.144 29.7795 30.144C30.3398 30.144 30.7957 29.6882 30.7957 29.1279V19.7922C30.7957 17.8897 29.5919 16.6071 27.2177 15.9797C26.9652 15.913 26.7673 15.7172 26.6978 15.4655C26.6282 15.2139 26.6978 14.9442 26.8802 14.7574C27.5471 14.0746 27.9144 13.1737 27.9144 12.2206C27.9144 10.2181 26.2852 8.58887 24.2826 8.58887C22.2801 8.58887 20.6509 10.2181 20.6509 12.2206C20.6509 13.1799 21.022 14.0849 21.6959 14.7688C21.8791 14.9547 21.9497 15.2239 21.8814 15.4758C21.8132 15.7277 21.6163 15.9243 21.3644 15.9924C19.0212 16.6246 17.8331 17.9031 17.8331 19.7922V29.1278C17.8331 29.6881 18.289 30.1439 18.8493 30.1439C19.4097 30.1439 19.8655 29.6881 19.8655 29.1278V20.3553C19.8655 19.95 20.1941 19.6214 20.5994 19.6214C21.0048 19.6214 21.3333 19.95 21.3333 20.3553V39.6277C21.3333 40.2474 21.8374 40.7515 22.457 40.7515C23.0767 40.7515 23.5808 40.2474 23.5808 39.6277V29.2775C23.5808 28.8723 23.9094 28.5436 24.3146 28.5436C24.7199 28.5436 25.0485 28.8723 25.0485 29.2775V39.6277C25.0485 40.2474 25.5526 40.7515 26.1723 40.7515C26.7919 40.7515 27.296 40.2474 27.296 39.6277ZM11.2675 22.9656C11.6927 22.2499 11.9198 21.4308 11.9198 20.5794C11.9198 17.9962 9.81821 15.8947 7.23501 15.8947C4.65181 15.8947 2.55024 17.9962 2.55024 20.5794C2.55024 21.4391 2.7812 22.2649 3.21353 22.9847C1.13149 23.8399 0.000244141 25.3905 0.000244141 27.4318V28.1674V28.6218V32.6927C0.000244141 33.9706 1.03989 35.0103 2.31782 35.0103C2.61772 35.0103 2.90444 34.953 3.16772 34.8489V39.8041C3.16772 41.1357 4.25112 42.2191 5.58267 42.2191C6.2355 42.2191 6.82866 41.9587 7.26382 41.5363C7.69888 41.9587 8.29204 42.2191 8.94487 42.2191C10.2765 42.2191 11.3598 41.1357 11.3598 39.8041V34.8489C11.6231 34.953 11.9098 35.0103 12.2097 35.0103C13.4876 35.0103 14.5273 33.9706 14.5273 32.6927V27.4318C14.5274 25.3741 13.3796 23.8167 11.2675 22.9656ZM1.46802 28.6218L1.46792 28.6339V32.6926C1.46792 33.1613 1.84917 33.5425 2.31782 33.5425C2.78647 33.5425 3.16772 33.1613 3.16772 32.6926V30.0895V27.9414C3.16772 27.5362 3.49634 27.2075 3.90161 27.2075C4.30688 27.2075 4.6355 27.5362 4.6355 27.9414V29.3556H9.89214V27.9414C9.89214 27.5362 10.2208 27.2075 10.626 27.2075C11.0313 27.2075 11.3599 27.5362 11.3599 27.9414V30.0895V32.6926C11.3599 33.1613 11.7412 33.5425 12.2098 33.5425C12.6785 33.5425 13.0597 33.1613 13.0597 32.6926V27.4317C13.0597 25.7457 11.9877 24.6075 9.87349 24.0488C9.62114 23.9821 9.42309 23.7863 9.35366 23.5346C9.28423 23.2829 9.35366 23.0132 9.53608 22.8265C10.1269 22.2218 10.4522 21.4237 10.4522 20.5794C10.4522 18.8056 9.00903 17.3624 7.2352 17.3624C5.46138 17.3624 4.01821 18.8056 4.01821 20.5794C4.01821 21.4292 4.34692 22.2308 4.9438 22.8366C5.127 23.0225 5.19761 23.2917 5.12935 23.5436C5.06108 23.7954 4.86421 23.9921 4.61226 24.0602C2.52593 24.6233 1.46802 25.7576 1.46802 27.4318V28.6218ZM9.89224 30.8234V31.9638C8.73882 33.1513 7.67456 33.6883 7.26392 33.6883C6.85317 33.6883 5.78882 33.1512 4.6356 31.9638V30.8234H9.89224ZM5.58267 40.7515C5.0604 40.7515 4.6354 40.3266 4.6354 39.8042V33.94C5.19243 34.3858 5.86362 34.8273 6.52993 35.0341V39.8042C6.53003 40.3265 6.10503 40.7515 5.58267 40.7515ZM8.94487 40.7515C8.42261 40.7515 7.99761 40.3266 7.99761 39.8042V35.0341C8.66392 34.8273 9.33511 34.3858 9.89214 33.94V39.8042C9.89224 40.3265 9.46724 40.7515 8.94487 40.7515Z" fill="#333333"/>
</svg>
